<?xml version="1.0" encoding="UTF-8" standalone="no"?>

<svg
   version="1.1"
   id="svg2"
   width="550.66669"
   height="564"
   viewBox="0 0 550.66669 564"
   sodipodi:docname="logo_vector_outline_straight.eps"
   xmlns:inkscape="http://www.inkscape.org/namespaces/inkscape"
   xmlns:sodipodi="http://sodipodi.sourceforge.net/DTD/sodipodi-0.dtd"
   xmlns="http://www.w3.org/2000/svg"
   xmlns:svg="http://www.w3.org/2000/svg">
  <defs
     id="defs6" />
  <sodipodi:namedview
     id="namedview4"
     pagecolor="#ffffff"
     bordercolor="#000000"
     borderopacity="0.25"
     inkscape:showpageshadow="2"
     inkscape:pageopacity="0.0"
     inkscape:pagecheckerboard="0"
     inkscape:deskcolor="#d1d1d1" />
  <g
     id="g8"
     inkscape:groupmode="layer"
     inkscape:label="ink_ext_XXXXXX"
     transform="matrix(1.3333333,0,0,-1.3333333,0,564)">
    <g
       id="g10"
       transform="scale(0.1)">
      <path
         d="m 2152.73,4222.19 c -212.96,-7.7 -431.91,-56.76 -607.22,-183.05 -85.35,-61.52 -156.64,-143.05 -203.87,-237.23 -324.53,0.98 -649.218,4.3 -973.671,-2.93 C 170.59,3778.44 -3.35938,3585.23 10.3516,3388.01 12.6992,3323.83 7.73047,1493.36 9.30078,1446.05 10.1211,1422.97 9.30078,1146.02 7.5,969.02 7.57813,716.02 13.0898,460.941 22.2305,208.051 38.9492,88.2813 157.66,0.589844 275.43,1.25 518.32,1.99219 761.289,0.699219 1004.18,0.78125 c 881.84,-0.3125 1763.71,0.160156 2645.55,1.98828 85,0.94141 170.27,-0.5 255.11,2.92969 107.23,16.88278 207.35,105.74978 215.47,217.49978 5.71,211.063 1.25,422.231 3.17,633.36 -0.86,73.953 2.03,140.632 2.69,221.881 -0.27,146.44 0.86,236.91 -1.87,394.45 -2.62,661.68 4.72,1347.66 0.08,2009.3 -31.76,188.32 -226.76,324.92 -415.4,321.68 -148.32,3.43 -296.71,-2.11 -445.07,-0.28 -124.3,-0.19 -248.6,-0.43 -372.89,-0.62 -60.98,129.76 -142.43,258.01 -267.19,334.57 -130.24,67.58 -280,78.05 -423.95,84.84 -15.7,0.32 -31.44,-0.04 -47.15,-0.19 z"
         style="fill:#ffffff;fill-opacity:1;fill-rule:nonzero;stroke:none"
         id="path12" />
      <path
         d="m 2945,3715.2 c -14.96,-0.67 -28.12,-8.36 -27.73,-34.5 0.31,-22.77 42.73,-139.49 46.21,-147.58 16.6,-38.28 36.21,-33.28 36.21,-33.28 l 549.02,0.08 c 0,0 98.17,13.17 184.14,-76.4 85.98,-89.61 69.92,-177.47 69.92,-177.47 0,0 1.96,-1642.07 1.53,-1664.88 -0.59,-31.48 -26.33,-79.92 -73.17,-126.52 -56.21,-55.94 -89.8,-69.06 -143.4,-74.57 -24.41,-2.54 -2972.101,0.15 -2972.101,0.15 0,0 -107.348,-13.12 -193.008,69.22 -85.672,82.35 -78.012,171.1 -78.012,171.1 l -1.41,1636.44 c 0,0 0.711,99.92 79.891,174.26 79.18,74.34 177.851,68.52 177.851,68.52 l 681.759,-0.82 25.19,21.21 15.9,76.87 -1.33,90.16 -33.44,26.6 -851.051,0.94 c 0,0 -128.629,13.63 -232.149,-90.78 -103.48,-104.42 -87.582,-223.52 -87.582,-223.52 l 0.782,-1885.16 c 0,0 -19.8403,-160.07 93.441,-266.25 113.277,-106.17 270.82,-80.54 270.82,-80.54 l 3259.769,-0.63 c 0,0 89.06,-10.7 197.85,90.74 98.05,91.41 86.37,184.53 86.37,184.53 l 0.78,1982.9 c 0,0 20.93,78.32 -82.23,191.48 -103.16,113.12 -225.27,97.58 -225.27,97.58 l -757.23,-0.71"
         style="fill:#0a2548;fill-opacity:1;fill-rule:nonzero;stroke:none"
         id="path14" />
      <path
         d="m 311.879,1169.14 3536.481,0.27 c 0,0 89.37,10.43 143.48,-48.32 54.1,-58.71 43.71,-125.621 43.71,-125.621 l -1.17,-724.18 c 0,0 12.92,-66.129 -37.62,-121.09 -50.59,-54.9685 -129.3,-58.0896 -129.3,-58.0896 L 298.012,91.5586 c 0,0 -86.961,-4.2578 -139.532,45.5504 -52.621,49.762 -50.32,116.723 -50.32,116.723 l 1.719,734.758 c 0,0 -7.731,93.32 55.551,142.07 63.281,48.71 146.449,38.48 146.449,38.48 z"
         style="fill:#fdb515;fill-opacity:1;fill-rule:nonzero;stroke:none"
         id="path16" />
      <path
         d="m 277.379,243.672 c 17.422,-19.102 41.961,-17.621 41.961,-17.621 l 355.82,-0.781 336.99,-0.188 c 0,0 40.23,-3.211 59.3,12.109 19.06,15.309 14.76,46.129 14.76,46.129 l 0.27,36.879 -0.35,40.461 c 0,0 0.24,33.172 -11.68,46.61 -11.91,13.429 -49.57,13.941 -49.57,13.941 l -250.232,0.238 -247.968,2.262 c 0,0 -25.981,-4.84 -45.309,15.391 -19.34,20.238 -14.922,44.257 -14.922,44.257 l 0.391,136.563 0.39,135.308 c 0,0 -3.089,34.219 12.071,49.77 15.148,15.551 48.937,11.211 48.937,11.211 l 123.481,0.199 123.511,0.192 155.282,-0.43 94.368,-0.391 c 0,0 38.71,0.199 50.82,13.321 12.11,13.168 10.35,46.988 10.35,46.988 l -0.19,8.711 0.08,69.07 c 0,0 0.31,8.668 -1.06,19.098 -1.36,10.39 -4.49,22.5 -11.29,29.301 -6.79,6.83 -18.71,9.57 -28.94,10.58 -10.24,1.06 -18.75,0.35 -18.75,0.35 l -353.24,-0.31 -350.359,0.12 c 0,0 -27.5,1.83 -44.922,-15.24 C 260,980.738 261.09,951.871 261.09,951.871 L 260.469,619.57 259.84,286.41 c 0,0 0.121,-23.64 17.539,-42.738 z"
         style="fill:#0a2548;fill-opacity:1;fill-rule:nonzero;stroke:none"
         id="path18" />
      <path
         d="m 3351.84,387.34 c 0,0 -0.36,21.211 7.38,29.18 7.73,7.968 23.08,6.921 23.08,6.921 l 144.85,-0.941 c 0,0 17.77,1.641 24.96,-5.391 7.19,-7.027 6.91,-23.199 6.91,-23.199 l -0.11,-137.539 c 0,0 0.62,-15.351 -7.31,-23.25 -7.93,-7.922 -28.36,-9.019 -28.36,-9.019 l -143.01,-0.122 c 0,0 -15.62,0.711 -21.91,7 -6.33,6.25 -7.42,17.61 -7.42,17.61 z"
         style="fill:#1f66b8;fill-opacity:1;fill-rule:nonzero;stroke:none"
         id="path20" />
      <path
         d="m 877.539,682.73 c 0,0 -0.348,21.219 7.383,29.141 7.738,7.969 23.09,6.918 23.09,6.918 l 144.838,-0.937 c 0,0 17.78,1.636 24.96,-5.391 7.19,-6.992 6.92,-23.199 6.92,-23.199 l -0.12,-137.5 c 0,0 0.66,-15.352 -7.27,-23.282 -7.96,-7.89 -28.39,-9.031 -28.39,-9.031 L 905.941,519.34 c 0,0 -15.632,0.742 -21.921,6.992 -6.29,6.25 -7.418,17.648 -7.418,17.648 z"
         style="fill:#1f66b8;fill-opacity:1;fill-rule:nonzero;stroke:none"
         id="path22" />
      <path
         d="m 569.488,682.852 c 0,0 -0.347,21.207 7.391,29.179 7.73,7.969 23.082,6.918 23.082,6.918 l 144.84,-0.937 c 0,0 17.777,1.597 24.969,-5.391 7.179,-7.031 6.91,-23.211 6.91,-23.211 l -0.121,-137.539 c 0,0 0.671,-15.351 -7.258,-23.242 -7.973,-7.93 -28.403,-9.02 -28.403,-9.02 l -143.007,-0.121 c 0,0 -15.621,0.711 -21.911,6.961 -6.289,6.281 -7.429,17.653 -7.429,17.653 z"
         style="fill:#1f66b8;fill-opacity:1;fill-rule:nonzero;stroke:none"
         id="path24" />
      <path
         d="m 2929.77,999.648 c -14.65,15.512 -46.25,13.632 -46.25,13.632 h -707.78 c 0,0 -29.02,1.84 -45.08,-13.71 -16.01,-15.55 -14.84,-46.91 -14.84,-46.91 l 0.51,-373.64 c 0,0 -1.25,-24.532 16.72,-42.61 17.97,-18.051 43.36,-16.289 43.36,-16.289 l 497.85,-1.57 c 0,0 31.52,1.879 47.07,-13.512 15.55,-15.391 15.08,-34.449 15.08,-34.449 0,0 1.75,-18.641 -13.91,-34.141 -15.7,-15.551 -48.91,-13.597 -48.91,-13.597 l -495.78,-0.551 c 0,0 -25.97,1.719 -44.68,-15.071 -18.72,-16.839 -17.93,-45.98 -17.93,-45.98 l 0.27,-77.191 c 0,0 -2.38,-27.688 15.08,-45.11 17.5,-17.429 44.88,-14.929 44.88,-14.929 l 702.38,0.859 c 0,0 28.83,2.582 46.41,19.769 17.58,17.223 15.9,43.282 15.9,43.282 l 1.99,369.101 c 0,0 1.6,26.641 -15.39,44.258 -16.95,17.621 -44.14,17.07 -44.14,17.07 l -497.97,-1.019 c 0,0 -34.06,-3.508 -49.06,13.09 -15.04,16.64 -14.03,36.84 -14.03,36.84 0,0 -1.91,14.679 13.68,32.46 15.58,17.77 47.14,15.54 47.14,15.54 l 497.89,-1.438 c 0,0 29.5,-0.633 47.82,15.738 18.28,16.371 14.1,45.43 14.1,45.43 l 0.12,78.051 c 0,0 2.18,31.09 -12.47,46.597 z"
         style="fill:#0a2548;fill-opacity:1;fill-rule:nonzero;stroke:none"
         id="path26" />
      <path
         d="m 2000.94,1000.16 c -14.65,15.5 -46.29,13.67 -46.29,13.67 l -707.74,-0.04 c 0,0 -29.06,1.83 -45.07,-13.71 -16.06,-15.549 -14.89,-46.881 -14.89,-46.881 l 0.51,-373.629 c 0,0 -1.25,-24.57 16.72,-42.621 17.97,-18.078 43.4,-16.328 43.4,-16.328 l 497.85,-1.519 c 0,0 31.52,1.839 47.07,-13.551 15.51,-15.391 15.04,-34.461 15.04,-34.461 0,0 1.8,-18.629 -13.91,-34.141 -15.66,-15.5 -48.86,-13.551 -48.86,-13.551 l -495.82,-0.589 c 0,0 -25.98,1.722 -44.69,-15.079 -18.67,-16.832 -17.93,-45.929 -17.93,-45.929 l 0.27,-77.231 c 0,0 -2.38,-27.66 15.08,-45.121 17.5,-17.418 44.88,-14.918 44.88,-14.918 l 702.39,0.899 c 0,0 28.82,2.539 46.4,19.769 17.58,17.18 15.9,43.281 15.9,43.281 l 1.99,369.059 c 0,0 1.6,26.68 -15.39,44.262 -16.95,17.609 -44.14,17.07 -44.14,17.07 l -497.97,-0.98 c 0,0 -34.06,-3.551 -49.06,13.089 -15.04,16.602 -14.02,36.79 -14.02,36.79 0,0 -1.92,14.691 13.67,32.46 15.62,17.782 47.15,15.551 47.15,15.551 l 497.89,-1.441 c 0,0 29.49,-0.629 47.81,15.781 18.28,16.359 14.1,45.43 14.1,45.43 l 0.12,78 c 0,0 2.19,31.097 -12.46,46.609 z"
         style="fill:#0a2548;fill-opacity:1;fill-rule:nonzero;stroke:none"
         id="path28" />
      <path
         d="m 3102.19,1017.27 c 0,0 -20.47,4.18 -40.82,-15.24 -20.35,-19.37 -18.95,-45.428 -18.95,-45.428 l 1.72,-673.122 c 0,0 -3.24,-24.031 15.63,-43.75 18.86,-19.691 43.78,-16.609 43.78,-16.609 l 85.32,0.359 c 0,0 26.64,-4.031 46.4,13.821 19.77,17.82 16.18,44.808 16.18,44.808 l 0.58,169.571 c 0,0 -2.19,27.929 16.95,45.121 19.15,17.179 42.97,15.621 42.97,15.621 l 144.5,-0.902 144.49,0.902 c 0,0 23.83,1.558 42.97,-15.621 19.14,-17.192 16.99,-45.121 16.99,-45.121 l 0.62,-169.571 c 0,0 -3.59,-26.988 16.18,-44.808 19.76,-17.852 46.36,-13.821 46.36,-13.821 l 85.32,-0.359 c 0,0 24.88,-3.082 43.75,16.609 18.86,19.719 15.66,43.75 15.66,43.75 l 1.72,673.122 c 0,0 1.37,26.058 -18.99,45.428 -20.35,19.42 -40.74,15.24 -40.74,15.24 l -354.33,-0.86 z m 354.26,-198.438 147.14,-0.043 c 0,0 25.55,2.852 43.09,-13.707 17.54,-16.602 15.51,-36.133 15.51,-36.133 0,0 2.54,-23.328 -13.95,-38.558 -16.52,-15.27 -43.2,-13.403 -43.2,-13.403 l -148.59,0.711 -148.6,-0.711 c 0,0 -26.68,-1.867 -43.2,13.403 -16.49,15.23 -13.87,38.558 -13.87,38.558 0,0 -2.11,19.531 15.43,36.133 17.54,16.559 43.09,13.707 43.09,13.707 z"
         style="fill:#0a2548;fill-opacity:1;fill-rule:nonzero;stroke:none"
         id="path30" />
      <path
         d="m 1895.35,2823.05 c -8.4,-33.75 0.63,-115.82 -5.47,-174.14 -3.04,-28.99 -7.18,-58.64 -12.34,-87.31 -7.7,-42.89 -11.37,-86.4 -18.75,-129.37 -8.09,-47.15 -16.6,-93.21 -25.08,-140.32 -9.8,-54.64 -18.05,-113.55 -30.62,-167.65 -9.93,-42.54 -22.93,-81.29 -37.07,-122.58 -15.63,-45.63 -32.89,-90.7 -51.22,-135.31 -17.96,-43.79 -37.65,-86.88 -57.57,-129.81 -19.1,-41.17 -36.96,-83.08 -59.42,-122.5 -15.58,-27.3 -41.56,-48.98 -52.11,-78.63 -2.07,-5.74 -3.28,-12.31 -1.83,-18.28 1.17,-4.92 4.14,-9.81 8.24,-12.78 6.6,-4.84 23.75,-6.4 23.75,-6.4 0,0 1019.1,-5.31 1073.28,-0.98 14.22,1.13 28.48,13.52 35.43,20.59 10.59,10.74 20.78,23.16 28.52,36.13 9.64,16.17 15.54,34.61 19.18,53.05 9.18,46.05 15.62,84.84 21.01,131.48 7.62,65.9 13.87,139.06 21.95,204.92 7.47,60.59 12.31,123.48 18.95,184.18 8.2,74.85 15.74,147.39 27.7,221.72 16.36,102.07 33.39,204.06 49.37,306.25 8.79,56.33 16.6,113.64 21.6,170.43 3.13,35.55 4.88,70.04 6.72,105.63 1.02,19.84 3.2,39.61 4.57,59.45 1.72,24.65 1.45,55.59 4.57,74.02 24.14,142.58 -929.41,95.2 -1013.36,-241.79 z"
         style="fill:#1f66b8;fill-opacity:1;fill-rule:nonzero;stroke:none"
         id="path32" />
      <path
         d="m 2605.98,4049.49 c 1.91,-0.31 27.81,-20.58 52.3,-46.72 18.99,-20.31 38.99,-45.15 52.19,-62.5 35.9,-47.18 65.55,-98.2 92.69,-150.93 17.15,-33.36 27.74,-68.75 41.1,-103.75 12.65,-33.17 24.65,-66.57 34.76,-100.59 13.05,-43.95 25.04,-88.36 33.36,-133.48 5.75,-31.21 10,-62.85 11.41,-94.61 1.95,-43.39 0.04,-86.83 -0.86,-130.27 -0.66,-31.84 -0.7,-63.87 -4.14,-95.51 -3.4,-30.97 -6.06,-63.2 -19.22,-91.4 -10.55,-22.66 -30.9,-39.22 -46.17,-58.99 -17.54,-22.73 -49.81,-68.08 -52.11,-68.55 -2.27,-0.47 -36.64,-42.03 -59.41,-57.58 -26.29,-17.97 -56.1,-29.45 -84.89,-43.01 -30.97,-14.61 -63.47,-31.87 -94.29,-46.76 -25.4,-12.22 -49.65,-22.18 -76.33,-31.36 -21.53,-7.43 -44.1,-12.15 -66.72,-14.65 -98.44,-10.9 -198.91,-14.22 -297.11,-1.37 -31.17,4.1 -61.29,14.41 -90.98,24.69 -27.65,9.57 -55.23,20.15 -80.9,34.3 -16.87,9.25 -34.41,18.78 -47.53,32.89 -4.07,4.41 -8.68,14.64 -8.68,14.64 0,0 22.74,12.5 30.75,22.62 223.78,282.35 80.43,749.02 296.79,1037.15 62.54,83.28 165.04,136.33 265,165.47 38.01,11.09 83.05,18.28 118.4,0.58 z"
         style="fill:#dbd4cc;fill-opacity:1;fill-rule:nonzero;stroke:none"
         id="path34" />
      <path
         d="m 1450.51,3363.55 c -18.56,22.19 -34.14,67.82 -45.12,124.26 -11.64,59.89 -13.71,129.61 -5.04,182.66 4.38,26.8 14.1,73.79 36.1,115.66 27.38,52.11 68.24,96.72 110.15,138.05 21.95,21.64 46.68,40.82 73.13,56.68 45.54,27.26 95.23,60.82 145.35,78.16 62.65,21.64 123.55,42.74 188.94,53.75 68.75,11.57 153.09,21.02 222.82,22.31 85.93,1.56 196.68,-13.4 246.64,-21.96 38.86,-6.64 79.41,-20.15 116.83,-32.61 39.92,-13.32 66.17,-31.29 66.17,-31.29 0,0 -40.62,-1.99 -51.56,-8.95 -17.11,-10.9 -32.54,-24.76 -45.7,-40.23 -18.17,-21.37 -32.66,-45.98 -44.77,-71.29 -12.54,-26.17 -22.03,-53.98 -28.36,-82.3 -6.09,-27.19 -7.81,-55.32 -9.14,-83.17 -2.97,-62.73 5.32,-125.58 2.74,-188.32 -1.17,-28.44 -3.4,-56.95 -8.21,-85.04 -7.07,-40.86 -20.39,-80.35 -30.19,-120.66 -6.25,-25.86 -10.98,-52.11 -18.28,-77.7 -7.58,-26.6 -16.92,-52.65 -26.49,-78.63 -13.9,-37.58 -26.91,-75.66 -44.8,-111.52 -15,-29.96 -31.09,-59.85 -52.11,-85.94 -15.82,-19.61 -34.3,-37.5 -54.84,-52.11 -20.12,-14.26 -43.95,-22.46 -65.82,-33.79 -27.5,-14.26 -53.99,-30.47 -82.27,-42.97 -15.74,-6.99 -26.8,-15.15 -42.97,-21.05 -13.08,-4.77 -26.13,-9.65 -39.33,-14.14 -9.38,-3.21 -24.22,-8.52 -33.83,-5.98 -228.25,61.33 -328.48,336.76 -480.04,518.12 z"
         style="fill:#1f66b8;fill-opacity:1;fill-rule:nonzero;stroke:none"
         id="path36" />
      <path
         d="m 1496.37,2512.38 c 52.34,30 87.3,73.91 129.29,113.75 39.18,37.23 75.51,78.17 119.26,109.92 43.48,31.57 85.78,54.11 133.48,78.83 39.26,20.35 76.87,46.41 113.12,72.74 20.08,14.61 50.2,24.88 64.77,47.11 10.62,16.17 15.51,27.81 3.75,57.93 -13.24,33.94 -81.45,57.22 -81.45,57.22 0,0 -60.11,19.69 -76.25,30.71 -16.17,10.97 -36.21,23.59 -42.69,75.93 -6.45,52.39 17.77,109.89 11.01,167.11 -6.79,57.19 -27.57,71.96 -50.93,75.47 -28.95,4.34 -99.42,-40.7 -151.41,-64.14 -41.6,-18.79 -61.41,8.4 -61.41,8.4 0,0 -31.32,44.18 -62.69,52.58 -31.33,8.4 -70.31,7.58 -80.47,-10.24 -8.91,-15.58 -14.22,-12.61 -10.35,-58.2 3.87,-45.55 6.09,-149.22 -9.18,-221.52 -12.03,-57.03 -38.17,-110.04 -65.82,-161.33 -24.06,-44.65 -53.09,-85.08 -85.94,-125.7 -22.11,-27.39 -52.03,-47.35 -78.59,-70.4 -33.99,-29.49 -70.9,-55.66 -103.32,-86.83 -16.64,-16.02 -35.24,-31.13 -46.6,-51.21 -10.4,-18.28 -15.67,-37.89 -19.42,-58.56 -4.22,-23.12 -7.03,-48.94 -3.44,-72.18 1.76,-11.61 5.43,-23.72 12.78,-32.9 17.65,-22.1 43.04,-40.19 70.39,-47.53 25.66,-6.92 53.24,1.71 79.53,5.46 35.51,5.08 70.39,13.95 105.16,22.86 31.99,8.24 60.74,21.05 89.88,36.13 32.26,16.64 66.05,30.51 97.54,48.59 z"
         style="fill:#0a2548;fill-opacity:1;fill-rule:nonzero;stroke:none"
         id="path38" />
      <path
         d="m 2203.87,3412.5 c 10.58,-0.74 17.81,0.78 26.4,2.85 4.81,1.21 9.42,3.17 13.79,5.43 4.65,2.34 8.91,5.43 13.17,8.48 7.3,5.19 14.96,8.98 21.17,16.64 15.23,18.83 26.48,41.01 35.12,63.63 3,7.89 4.53,16.33 5.66,24.69 1.8,13.55 2.85,27.34 1.64,40.94 -1.44,16.25 -1.41,34.25 -10.59,47.73 -7.38,10.78 -20.07,17.81 -32.5,21.88 -15.97,5.23 -34.25,6.71 -50.39,1.99 -14.45,-4.22 -27.22,-14.49 -37.11,-25.86 -8.94,-10.28 -14.68,-23.36 -18.55,-36.45 -4.49,-15.08 -5,-31.17 -4.96,-46.87 0.04,-12.97 -0.55,-26.64 4.3,-38.63 2.69,-6.8 5.82,-12.93 7.14,-19.85 3.01,-15.98 -2.22,-32.89 1.37,-48.75 0.7,-3.08 1.92,-6.17 3.83,-8.63 1.95,-2.5 4.69,-4.42 7.5,-5.82 4.02,-1.95 8.2,-3.05 13.01,-3.4 z"
         style="fill:#071a33;fill-opacity:1;fill-rule:nonzero;stroke:none"
         id="path40" />
    </g>
  </g>
</svg>
